<?xml version="1.0" encoding="UTF-8"?>
<svg xmlns="http://www.w3.org/2000/svg" xmlns:xlink="http://www.w3.org/1999/xlink" width="526.84pt" height="158.64pt" viewBox="0 0 526.84 158.64" version="1.1">
<defs>
<clipPath id="clip1">
  <path d="M 310 3 L 402 3 L 402 158.640625 L 310 158.640625 Z M 310 3 "/>
</clipPath>
<clipPath id="clip2">
  <path d="M 410 1 L 526.839844 1 L 526.839844 158.640625 L 410 158.640625 Z M 410 1 "/>
</clipPath>
</defs>
<g id="surface1">
<path style=" stroke:none;fill-rule:evenodd;fill:rgb(0%,43.499756%,72.198486%);fill-opacity:1;" d="M 65.976563 39.886719 L 66.351563 39.96875 C 75.550781 42.078125 84.585938 46.832031 93.4375 54.316406 C 102.207031 46.90625 111.148438 42.175781 120.25 40.035156 C 117.84375 37.722656 115.933594 34.902344 114.691406 31.738281 C 111.304688 40.386719 102.886719 46.507813 93.039063 46.507813 C 83.191406 46.507813 74.773438 40.386719 71.382813 31.738281 C 70.167969 34.832031 68.3125 37.601563 65.976563 39.886719 Z M 136.347656 0.00390625 C 149.1875 0.00390625 159.597656 10.414063 159.597656 23.257813 C 159.597656 33.898438 152.449219 42.871094 142.6875 45.632813 L 142.6875 49.105469 C 154.382813 42.140625 167.097656 37.878906 180.695313 36.355469 L 185.8125 35.78125 L 185.8125 83.902344 L 181.210938 83.902344 C 175.476563 83.902344 169.863281 86.058594 165.613281 89.902344 C 162.03125 93.140625 159.335938 97.722656 159.335938 102.65625 L 159.335938 125.808594 C 159.335938 140.984375 140.996094 157.980469 126.058594 157.980469 L 59.753906 157.980469 C 44.816406 157.980469 26.476563 140.984375 26.476563 125.808594 L 26.476563 102.65625 C 26.476563 97.722656 23.78125 93.140625 20.199219 89.902344 C 15.949219 86.058594 10.335938 83.902344 4.601563 83.902344 L 0 83.902344 L 0 35.78125 L 5.117188 36.355469 C 19.148438 37.925781 32.210938 42.40625 44.1875 49.75 L 44.1875 45.839844 C 34.023438 43.355469 26.476563 34.1875 26.476563 23.257813 C 26.476563 10.414063 36.886719 0.00390625 49.726563 0.00390625 C 59.574219 0.00390625 67.992188 6.125 71.382813 14.773438 C 74.773438 6.125 83.191406 0.00390625 93.039063 0.00390625 C 102.886719 0.00390625 111.304688 6.125 114.691406 14.769531 C 118.082031 6.125 126.5 0.00390625 136.347656 0.00390625 "/>
<path style=" stroke:none;fill-rule:evenodd;fill:rgb(100%,100%,100%);fill-opacity:1;" d="M 4.601563 40.929688 C 18.75 42.515625 31.96875 47.195313 44.1875 55.199219 L 44.1875 79.296875 C 61.085938 79.296875 73.113281 91.605469 73.113281 108.175781 L 73.113281 153.375 L 59.753906 153.375 C 47.152344 153.375 31.078125 138.203125 31.078125 125.808594 L 31.078125 102.65625 C 31.078125 90.683594 19.128906 79.296875 4.601563 79.296875 L 4.601563 40.929688 "/>
<path style=" stroke:none;fill-rule:evenodd;fill:rgb(92.89856%,12.5%,14.498901%);fill-opacity:1;" d="M 181.210938 40.929688 C 167.472656 42.46875 154.613281 46.925781 142.6875 54.511719 L 142.6875 79.296875 C 125.789063 79.296875 113.761719 91.605469 113.761719 108.175781 L 113.761719 153.375 L 126.058594 153.375 C 138.660156 153.375 154.734375 138.203125 154.734375 125.808594 L 154.734375 102.65625 C 154.734375 90.683594 166.6875 79.296875 181.210938 79.296875 L 181.210938 40.929688 "/>
<path style=" stroke:none;fill-rule:evenodd;fill:rgb(100%,100%,100%);fill-opacity:1;" d="M 49.726563 4.605469 C 60.027344 4.605469 68.375 12.957031 68.375 23.257813 C 68.375 33.554688 60.027344 41.902344 49.726563 41.902344 C 39.429688 41.902344 31.078125 33.554688 31.078125 23.257813 C 31.078125 12.957031 39.429688 4.605469 49.726563 4.605469 "/>
<path style=" stroke:none;fill-rule:evenodd;fill:rgb(92.89856%,12.5%,14.498901%);fill-opacity:1;" d="M 136.347656 4.605469 C 146.644531 4.605469 154.996094 12.957031 154.996094 23.257813 C 154.996094 33.554688 146.644531 41.902344 136.347656 41.902344 C 126.050781 41.902344 117.699219 33.554688 117.699219 23.257813 C 117.699219 12.957031 126.050781 4.605469 136.347656 4.605469 "/>
<path style=" stroke:none;fill-rule:evenodd;fill:rgb(0%,43.499756%,72.198486%);fill-opacity:1;" d="M 198.980469 3.210938 C 226.8125 3.210938 254.640625 3.210938 282.46875 3.210938 C 287.59375 3.210938 288 27.441406 282.46875 27.441406 L 223.480469 27.441406 L 223.480469 65.886719 C 240.171875 65.886719 256.863281 65.886719 273.554688 65.886719 C 278.855469 65.886719 278.941406 89.105469 273.554688 89.105469 L 223.480469 89.105469 L 223.480469 133.699219 L 282.089844 133.699219 C 288.722656 133.699219 287.945313 157.554688 282.089844 157.554688 L 199.039063 157.554688 C 194.117188 157.554688 191.507813 153.375 191.507813 148.925781 L 191.507813 12.15625 C 191.507813 6.445313 193.953125 3.210938 198.980469 3.210938 "/>
<g clip-path="url(#clip1)" clip-rule="nonzero">
<path style=" stroke:none;fill-rule:evenodd;fill:rgb(0%,43.499756%,72.198486%);fill-opacity:1;" d="M 317.734375 3.210938 C 345.566406 3.210938 369.332031 3.210938 397.164063 3.210938 C 402.289063 3.210938 402.695313 27.441406 397.164063 27.441406 L 342.234375 27.441406 L 342.234375 133.699219 L 341.8125 153.554688 C 341.726563 160.6875 310.261719 160.027344 310.261719 153.375 L 310.261719 12.15625 C 310.261719 6.445313 312.707031 3.210938 317.734375 3.210938 "/>
</g>
<g clip-path="url(#clip2)" clip-rule="nonzero">
<path style=" stroke:none;fill-rule:evenodd;fill:rgb(0%,43.499756%,72.198486%);fill-opacity:1;" d="M 492.296875 65.886719 C 470.265625 65.886719 448.902344 65.886719 425.90625 65.886719 C 420.78125 65.886719 420.378906 90.117188 425.90625 90.117188 C 447.941406 90.117188 469.96875 90.117188 492.003906 90.117188 C 491.953125 122.144531 469.382813 143.066406 431.460938 130.074219 C 425.066406 127.882813 421.792969 126.035156 416.183594 122.820313 C 415.546875 122.453125 414.898438 122.34375 414.230469 122.679688 C 411.460938 124.074219 411.28125 129.355469 411.050781 132.066406 C 410.699219 136.164063 410.808594 139.804688 411.550781 142.808594 C 413.339844 150.0625 418.074219 151.183594 424.324219 153.253906 C 441.175781 158.828125 457.875 159.707031 473.871094 156.378906 C 495.570313 151.863281 506.332031 145.335938 516.410156 125.292969 C 527.152344 103.9375 529.460938 76.890625 523.964844 54.15625 C 520.238281 38.734375 512.671875 24.105469 499.785156 14.421875 C 486.964844 4.785156 469.5 0.152344 448.097656 2.246094 C 440.324219 3.003906 425.554688 5.378906 418.816406 9.457031 C 410.859375 14.273438 411.710938 21.890625 412.085938 29.914063 C 412.230469 33.027344 412.609375 36.125 413.632813 37.285156 C 414.386719 38.140625 415.417969 38.316406 416.742188 37.761719 C 418.789063 36.898438 421.714844 34.550781 423.972656 33.316406 C 429.515625 30.292969 435.597656 28.164063 442.382813 27.230469 C 453.964844 25.636719 468.113281 26.957031 477.488281 34.566406 C 485.574219 41.132813 490.421875 51.679688 492.296875 65.886719 "/>
</g>
</g>
</svg>
